TITLE ""
FILE "DISC2Track05.mp3" MP3
  TRACK 01 AUDIO
    TITLE "DISC2Track05_01"
    INDEX 01 00:00:00
  TRACK 02 AUDIO
    TITLE "DISC2Track05_02"
    INDEX 01 00:04:26
  TRACK 03 AUDIO
    TITLE "DISC2Track05_03"
    INDEX 01 00:04:47
  TRACK 04 AUDIO
    TITLE "DISC2Track05_04"
    INDEX 01 00:07:44
  TRACK 05 AUDIO
    TITLE "DISC2Track05_05"
    INDEX 01 00:11:10
  TRACK 06 AUDIO
    TITLE "DISC2Track05_06"
    INDEX 01 00:14:42
  TRACK 07 AUDIO
    TITLE "DISC2Track05_07"
    INDEX 01 00:14:67
  TRACK 08 AUDIO
    TITLE "DISC2Track05_08"
    INDEX 01 00:17:66
  TRACK 09 AUDIO
    TITLE "DISC2Track05_09"
    INDEX 01 00:20:62
  TRACK 10 AUDIO
    TITLE "DISC2Track05_10"
    INDEX 01 00:23:52
  TRACK 11 AUDIO
    TITLE "DISC2Track05_11"
    INDEX 01 00:23:74
  TRACK 12 AUDIO
    TITLE "DISC2Track05_12"
    INDEX 01 00:25:38
  TRACK 13 AUDIO
    TITLE "DISC2Track05_13"
    INDEX 01 00:27:29
  TRACK 14 AUDIO
    TITLE "DISC2Track05_14"
    INDEX 01 00:29:22
  TRACK 15 AUDIO
    TITLE "DISC2Track05_15"
    INDEX 01 00:29:45
  TRACK 16 AUDIO
    TITLE "DISC2Track05_16"
    INDEX 01 00:33:29
  TRACK 17 AUDIO
    TITLE "DISC2Track05_17"
    INDEX 01 00:36:16
  TRACK 18 AUDIO
    TITLE "DISC2Track05_18"
    INDEX 01 00:38:68
  TRACK 19 AUDIO
    TITLE "DISC2Track05_19"
    INDEX 01 00:39:18
  TRACK 20 AUDIO
    TITLE "DISC2Track05_20"
    INDEX 01 00:41:07
  TRACK 21 AUDIO
    TITLE "DISC2Track05_21"
    INDEX 01 00:43:10
  TRACK 22 AUDIO
    TITLE "DISC2Track05_22"
    INDEX 01 00:45:03
  TRACK 23 AUDIO
    TITLE "DISC2Track05_23"
    INDEX 01 00:45:23
  TRACK 24 AUDIO
    TITLE "DISC2Track05_24"
    INDEX 01 00:48:27
  TRACK 25 AUDIO
    TITLE "DISC2Track05_25"
    INDEX 01 00:51:66
  TRACK 26 AUDIO
    TITLE "DISC2Track05_26"
    INDEX 01 00:55:25
  TRACK 27 AUDIO
    TITLE "DISC2Track05_27"
    INDEX 01 00:55:47
  TRACK 28 AUDIO
    TITLE "DISC2Track05_28"
    INDEX 01 00:58:70
  TRACK 29 AUDIO
    TITLE "DISC2Track05_29"
    INDEX 01 01:01:63
  TRACK 30 AUDIO
    TITLE "DISC2Track05_30"
    INDEX 01 01:04:51
  TRACK 31 AUDIO
    TITLE "DISC2Track05_31"
    INDEX 01 01:04:69
  TRACK 32 AUDIO
    TITLE "DISC2Track05_32"
    INDEX 01 01:08:16
  TRACK 33 AUDIO
    TITLE "DISC2Track05_33"
    INDEX 01 01:11:57
  TRACK 34 AUDIO
    TITLE "DISC2Track05_34"
    INDEX 01 01:15:18
  TRACK 35 AUDIO
    TITLE "DISC2Track05_35"
    INDEX 01 01:15:41
  TRACK 36 AUDIO
    TITLE "DISC2Track05_36"
    INDEX 01 01:19:47
  TRACK 37 AUDIO
    TITLE "DISC2Track05_37"
    INDEX 01 01:22:67
  TRACK 38 AUDIO
    TITLE "DISC2Track05_38"
    INDEX 01 01:26:06
  TRACK 39 AUDIO
    TITLE "DISC2Track05_39"
    INDEX 01 01:26:30
  TRACK 40 AUDIO
    TITLE "DISC2Track05_40"
    INDEX 01 01:29:14
  TRACK 41 AUDIO
    TITLE "DISC2Track05_41"
    INDEX 01 01:32:12
  TRACK 42 AUDIO
    TITLE "DISC2Track05_42"
    INDEX 01 01:35:11
  TRACK 43 AUDIO
    TITLE "DISC2Track05_43"
    INDEX 01 01:35:34
  TRACK 44 AUDIO
    TITLE "DISC2Track05_44"
    INDEX 01 01:39:15
  TRACK 45 AUDIO
    TITLE "DISC2Track05_45"
    INDEX 01 01:42:46
  TRACK 46 AUDIO
    TITLE "DISC2Track05_46"
    INDEX 01 01:45:66
  TRACK 47 AUDIO
    TITLE "DISC2Track05_47"
    INDEX 01 01:46:22
  TRACK 48 AUDIO
    TITLE "DISC2Track05_48"
    INDEX 01 01:49:72
  TRACK 49 AUDIO
    TITLE "DISC2Track05_49"
    INDEX 01 01:53:46
  TRACK 50 AUDIO
    TITLE "DISC2Track05_50"
    INDEX 01 01:57:12
